<svg width="1920" height="573" viewBox="0 0 1920 573" fill="none" xmlns="http://www.w3.org/2000/svg">
<path d="M1920 573V0C1874.16 11.4586 1834.77 35.8916 1807.98 65.8859C1788.47 87.7181 1774.79 112.712 1750.17 131.492C1699.72 170.005 1617.35 172.627 1545.98 163.227C1474.64 153.829 1403.96 134.993 1331.78 139.861C1213.2 147.876 1120.66 216.719 1012.1 252.93C986.273 261.542 958.445 268.433 930.159 267.085C876.476 264.501 834.025 233.646 784.692 217.768C626.929 166.991 435.443 275.549 278.109 224.06C226.398 207.133 184.679 174.162 129.706 164.426C90.9736 157.555 50.2431 163.171 10.5987 160.27C7.08243 160.008 3.54022 159.614 0 159.146V572.961H1920V573Z" fill="#F5F3FD"/>
</svg>
