<svg width="180" height="34" viewBox="0 0 180 34" fill="none" xmlns="http://www.w3.org/2000/svg">
<g clip-path="url(#clip0_1072_6071)">
<path d="M32.193 0.346558L26.7435 22.5541H19.152L16.0965 8.94606L12.978 22.5541H5.3865L0 0.346558H6.678L9.261 15.5296L12.7575 0.346558H19.53L22.932 15.4036L25.515 0.346558H32.193Z" fill="white"/>
<path d="M44.7101 22.7745C42.6311 22.7745 40.7201 22.2915 38.9771 21.3255C37.2341 20.3385 35.8481 18.984 34.8191 17.262C33.8111 15.519 33.3071 13.5555 33.3071 11.3715C33.3071 9.1875 33.8111 7.2345 34.8191 5.5125C35.8481 3.7695 37.2341 2.415 38.9771 1.449C40.7201 0.483 42.6311 0 44.7101 0C46.8101 0 48.7211 0.483 50.4431 1.449C52.1861 2.415 53.5616 3.7695 54.5696 5.5125C55.5776 7.2345 56.0816 9.1875 56.0816 11.3715C56.0816 13.5555 55.5776 15.519 54.5696 17.262C53.5616 18.984 52.1861 20.3385 50.4431 21.3255C48.7001 22.2915 46.7891 22.7745 44.7101 22.7745ZM44.7101 17.0415C46.2851 17.0415 47.5241 16.527 48.4271 15.498C49.3511 14.469 49.8131 13.0935 49.8131 11.3715C49.8131 9.6075 49.3511 8.2215 48.4271 7.2135C47.5241 6.1845 46.2851 5.67 44.7101 5.67C43.1141 5.67 41.8646 6.1845 40.9616 7.2135C40.0586 8.2215 39.6071 9.6075 39.6071 11.3715C39.6071 13.1145 40.0586 14.5005 40.9616 15.5295C41.8646 16.5375 43.1141 17.0415 44.7101 17.0415Z" fill="white"/>
<path d="M69.5041 22.7745C67.4251 22.7745 65.5141 22.2915 63.7711 21.3255C62.0281 20.3385 60.6421 18.984 59.6131 17.262C58.6051 15.519 58.1011 13.5555 58.1011 11.3715C58.1011 9.1875 58.6051 7.2345 59.6131 5.5125C60.6421 3.7695 62.0281 2.415 63.7711 1.449C65.5141 0.483 67.4251 0 69.5041 0C71.6041 0 73.5151 0.483 75.2372 1.449C76.9802 2.415 78.3557 3.7695 79.3637 5.5125C80.3717 7.2345 80.8757 9.1875 80.8757 11.3715C80.8757 13.5555 80.3717 15.519 79.3637 17.262C78.3557 18.984 76.9802 20.3385 75.2372 21.3255C73.4941 22.2915 71.5831 22.7745 69.5041 22.7745ZM69.5041 17.0415C71.0791 17.0415 72.3181 16.527 73.2211 15.498C74.1451 14.469 74.6071 13.0935 74.6071 11.3715C74.6071 9.6075 74.1451 8.2215 73.2211 7.2135C72.3181 6.1845 71.0791 5.67 69.5041 5.67C67.9081 5.67 66.6586 6.1845 65.7556 7.2135C64.8526 8.2215 64.4011 9.6075 64.4011 11.3715C64.4011 13.1145 64.8526 14.5005 65.7556 15.5295C66.6586 16.5375 67.9081 17.0415 69.5041 17.0415Z" fill="white"/>
<path d="M101.196 7.74906C101.196 9.09306 100.881 10.3216 100.251 11.4346C99.6419 12.5266 98.7074 13.4086 97.4474 14.0806C96.2084 14.7316 94.6859 15.0571 92.8799 15.0571H89.8244V22.5541H83.6504V0.346558H92.8799C94.6649 0.346558 96.1769 0.661558 97.4159 1.29156C98.6759 1.92156 99.6209 2.79306 100.251 3.90606C100.881 5.01906 101.196 6.30006 101.196 7.74906ZM92.2814 10.1431C94.0244 10.1431 94.8959 9.34506 94.8959 7.74906C94.8959 6.13206 94.0244 5.32356 92.2814 5.32356H89.8244V10.1431H92.2814Z" fill="white"/>
<path d="M112.056 22.7745C109.473 22.7745 107.352 22.1655 105.693 20.9475C104.034 19.7085 103.142 17.9445 103.016 15.6555H109.599C109.662 16.4325 109.893 16.9995 110.292 17.3565C110.691 17.7135 111.206 17.892 111.836 17.892C112.403 17.892 112.865 17.7555 113.222 17.4825C113.6 17.1885 113.789 16.7895 113.789 16.2855C113.789 15.6345 113.484 15.1305 112.875 14.7735C112.266 14.4165 111.279 14.0175 109.914 13.5765C108.465 13.0935 107.289 12.6315 106.386 12.1905C105.504 11.7285 104.727 11.067 104.055 10.206C103.404 9.324 103.079 8.1795 103.079 6.7725C103.079 5.3445 103.436 4.1265 104.15 3.1185C104.864 2.0895 105.851 1.3125 107.111 0.7875C108.371 0.2625 109.799 0 111.395 0C113.978 0 116.036 0.609 117.569 1.827C119.123 3.024 119.952 4.7145 120.057 6.8985H113.348C113.327 6.2265 113.117 5.7225 112.718 5.3865C112.34 5.0505 111.846 4.8825 111.237 4.8825C110.775 4.8825 110.397 5.019 110.103 5.292C109.809 5.565 109.662 5.9535 109.662 6.4575C109.662 6.8775 109.82 7.245 110.135 7.56C110.471 7.854 110.88 8.1165 111.363 8.3475C111.846 8.5575 112.56 8.8305 113.505 9.1665C114.912 9.6495 116.067 10.1325 116.97 10.6155C117.894 11.0775 118.682 11.739 119.333 12.6C120.005 13.44 120.341 14.511 120.341 15.813C120.341 17.136 120.005 18.3225 119.333 19.3725C118.682 20.4225 117.726 21.252 116.466 21.861C115.227 22.47 113.757 22.7745 112.056 22.7745Z" fill="white"/>
<path d="M137.259 18.9316H129.384L128.188 22.5541H121.698L129.794 0.346558H136.913L144.977 22.5541H138.457L137.259 18.9316ZM135.716 14.2066L133.322 7.02456L130.96 14.2066H135.716Z" fill="white"/>
<g clip-path="url(#clip1_1072_6071)">
<path opacity="0.937" fill-rule="evenodd" clip-rule="evenodd" d="M175.647 17.1613C175.647 18.0097 175.647 18.8582 175.647 19.7066C174.514 20.4804 173.241 20.8441 171.829 20.7975C171.249 20.7756 170.673 20.715 170.102 20.6157C169.407 20.7011 169.316 20.9738 169.829 21.4339C171.061 21.743 172.213 22.2278 173.284 22.8884C174.302 23.7402 174.787 24.8008 174.738 26.0701C166.907 23.4281 159.331 24.0039 152.012 27.7973C150.177 28.9362 148.541 30.2997 147.103 31.8881C146.982 31.8881 146.86 31.8881 146.739 31.8881C148.07 27.0419 150.676 23.0421 154.557 19.8885C157.594 17.743 160.957 16.8945 164.648 17.3431C165.398 17.2789 165.549 17.0061 165.102 16.5249C162.934 15.7013 160.753 14.9134 158.557 14.1614C157.095 13.6686 156.034 12.7293 155.375 11.3433C155.127 10.7545 155.066 10.1485 155.194 9.52517C155.733 9.87085 156.309 10.1436 156.921 10.3433C158.429 10.6303 159.944 10.8727 161.466 11.0706C162.629 11.2664 163.72 11.6603 164.739 12.2524C164.956 12.1895 164.956 12.0986 164.739 11.9796C164.118 11.7152 163.543 11.3819 163.011 10.9797C162.585 9.90323 162.736 8.93357 163.466 8.07068C164.332 9.38833 165.423 10.5095 166.739 11.4342C167.662 12.2359 168.45 13.1449 169.102 14.1614C171.755 14.1241 173.937 15.124 175.647 17.1613ZM171.102 16.2522C171.284 16.2522 171.466 16.2522 171.648 16.2522C171.717 16.6458 171.596 16.9488 171.284 17.1613C170.883 16.9282 170.822 16.6252 171.102 16.2522Z" fill="white"/>
<path opacity="0.876" fill-rule="evenodd" clip-rule="evenodd" d="M147.83 18.7976C149.101 18.706 150.162 19.1302 151.012 20.0703C151.45 20.8936 151.298 21.5905 150.557 22.1611C148.638 22.6566 147.365 21.99 146.739 20.1612C146.88 19.5075 147.244 19.053 147.83 18.7976Z" fill="white"/>
</g>
<path d="M86.3844 27.501C86.3844 27.7146 86.3357 27.9105 86.2374 28.089C86.1392 28.264 85.9892 28.4058 85.7859 28.5143C85.5827 28.6228 85.3307 28.677 85.0299 28.677H84.4734V30H83.5757V26.3145H85.0299C85.3239 26.3145 85.5722 26.3653 85.7754 26.4668C85.9787 26.5683 86.1309 26.7083 86.2322 26.8868C86.3334 27.0653 86.3844 27.27 86.3844 27.501ZM84.9617 27.963C85.1334 27.963 85.2609 27.9228 85.3449 27.8423C85.4289 27.7618 85.4709 27.648 85.4709 27.501C85.4709 27.354 85.4289 27.2403 85.3449 27.1598C85.2609 27.0793 85.1334 27.039 84.9617 27.039H84.4734V27.963H84.9617ZM88.5527 30.042C88.2654 30.042 88.0067 29.9808 87.7757 29.8583C87.5484 29.7358 87.3677 29.5608 87.2349 29.3333C87.1052 29.1058 87.0407 28.8398 87.0407 28.5353C87.0407 28.2343 87.1074 27.97 87.2402 27.7426C87.3729 27.5116 87.5552 27.3348 87.7862 27.2123C88.0172 27.0898 88.2759 27.0285 88.5632 27.0285C88.8504 27.0285 89.1092 27.0898 89.3402 27.2123C89.5712 27.3348 89.7534 27.5116 89.8862 27.7426C90.0189 27.97 90.0857 28.2343 90.0857 28.5353C90.0857 28.8363 90.0174 29.1023 89.8809 29.3333C89.7482 29.5608 89.5644 29.7358 89.3297 29.8583C89.0987 29.9808 88.8399 30.042 88.5527 30.042ZM88.5527 29.265C88.7244 29.265 88.8692 29.2021 88.9884 29.0761C89.1107 28.9501 89.1722 28.7698 89.1722 28.5353C89.1722 28.3008 89.1129 28.1205 88.9937 27.9945C88.8782 27.8685 88.7349 27.8056 88.5632 27.8056C88.3884 27.8056 88.2429 27.8685 88.1274 27.9945C88.0119 28.117 87.9542 28.2973 87.9542 28.5353C87.9542 28.7698 88.0104 28.9501 88.1222 29.0761C88.2377 29.2021 88.3809 29.265 88.5527 29.265ZM95.1347 27.0706L94.3419 30H93.3497L92.8877 28.0995L92.4099 30H91.4229L90.6249 27.0706H91.5227L91.9374 29.1653L92.4309 27.0706H93.3812L93.8799 29.1548L94.2894 27.0706H95.1347ZM98.6064 28.4881C98.6064 28.5721 98.6012 28.6596 98.5907 28.7505H96.5589C96.5724 28.9326 96.6302 29.0725 96.7322 29.1706C96.8372 29.2651 96.9647 29.3123 97.1154 29.3123C97.3389 29.3123 97.4949 29.2178 97.5827 29.0288H98.5382C98.4887 29.2213 98.3994 29.3946 98.2704 29.5485C98.1444 29.7025 97.9847 29.8233 97.7927 29.9108C97.5999 29.9983 97.3847 30.042 97.1469 30.042C96.8597 30.042 96.6039 29.9808 96.3804 29.8583C96.1562 29.7358 95.9814 29.5608 95.8554 29.3333C95.7294 29.1058 95.6664 28.8398 95.6664 28.5353C95.6664 28.2308 95.7272 27.9648 95.8502 27.7373C95.9762 27.5098 96.1509 27.3348 96.3752 27.2123C96.5987 27.0898 96.8559 27.0285 97.1469 27.0285C97.4304 27.0285 97.6824 27.088 97.9029 27.207C98.1234 27.3261 98.2944 27.4958 98.4174 27.7163C98.5434 27.9368 98.6064 28.1941 98.6064 28.4881ZM97.6877 28.2518C97.6877 28.0978 97.6352 27.9753 97.5302 27.8843C97.4252 27.7933 97.2939 27.7478 97.1364 27.7478C96.9857 27.7478 96.8582 27.7915 96.7532 27.879C96.6512 27.9666 96.5882 28.0908 96.5642 28.2518H97.6877ZM100.345 27.5588C100.45 27.3978 100.581 27.2718 100.739 27.1808C100.896 27.0863 101.071 27.039 101.264 27.039V27.9893H101.017C100.793 27.9893 100.625 28.0383 100.513 28.1363C100.401 28.2308 100.345 28.3988 100.345 28.6403V30H99.4472V27.0706H100.345V27.5588ZM104.822 28.4881C104.822 28.5721 104.816 28.6596 104.806 28.7505H102.774C102.788 28.9326 102.846 29.0725 102.947 29.1706C103.052 29.2651 103.181 29.3123 103.331 29.3123C103.555 29.3123 103.711 29.2178 103.798 29.0288H104.753C104.705 29.2213 104.615 29.3946 104.486 29.5485C104.36 29.7025 104.201 29.8233 104.008 29.9108C103.816 29.9983 103.601 30.042 103.362 30.042C103.076 30.042 102.82 29.9808 102.596 29.8583C102.372 29.7358 102.197 29.5608 102.071 29.3333C101.945 29.1058 101.882 28.8398 101.882 28.5353C101.882 28.2308 101.943 27.9648 102.065 27.7373C102.191 27.5098 102.367 27.3348 102.59 27.2123C102.815 27.0898 103.072 27.0285 103.362 27.0285C103.646 27.0285 103.898 27.088 104.118 27.207C104.339 27.3261 104.51 27.4958 104.633 27.7163C104.759 27.9368 104.822 28.1941 104.822 28.4881ZM103.903 28.2518C103.903 28.0978 103.85 27.9753 103.745 27.8843C103.64 27.7933 103.509 27.7478 103.352 27.7478C103.202 27.7478 103.073 27.7915 102.968 27.879C102.867 27.9666 102.804 28.0908 102.779 28.2518H103.903ZM105.485 28.53C105.485 28.2291 105.54 27.9648 105.653 27.7373C105.768 27.5098 105.923 27.3348 106.12 27.2123C106.316 27.0898 106.535 27.0285 106.776 27.0285C106.968 27.0285 107.144 27.0688 107.301 27.1493C107.462 27.2298 107.588 27.3383 107.679 27.4748V26.115H108.577V30H107.679V29.58C107.595 29.7201 107.474 29.832 107.317 29.916C107.162 30.0001 106.982 30.042 106.776 30.042C106.535 30.042 106.316 29.9808 106.12 29.8583C105.923 29.7323 105.768 29.5555 105.653 29.328C105.54 29.097 105.485 28.831 105.485 28.53ZM107.679 28.5353C107.679 28.3113 107.616 28.1346 107.49 28.005C107.367 27.8755 107.217 27.8108 107.039 27.8108C106.86 27.8108 106.708 27.8755 106.582 28.005C106.459 28.131 106.398 28.306 106.398 28.53C106.398 28.7541 106.459 28.9326 106.582 29.0656C106.708 29.1951 106.86 29.2598 107.039 29.2598C107.217 29.2598 107.367 29.1951 107.49 29.0656C107.616 28.936 107.679 28.7593 107.679 28.5353ZM111.971 27.4853C112.055 27.3488 112.176 27.2385 112.334 27.1545C112.491 27.0705 112.671 27.0285 112.874 27.0285C113.116 27.0285 113.335 27.0898 113.531 27.2123C113.726 27.3348 113.881 27.5098 113.993 27.7373C114.108 27.9648 114.166 28.2291 114.166 28.53C114.166 28.831 114.108 29.097 113.993 29.328C113.881 29.5555 113.726 29.7323 113.531 29.8583C113.335 29.9808 113.116 30.042 112.874 30.042C112.668 30.042 112.487 30.0018 112.334 29.9213C112.18 29.8373 112.059 29.727 111.971 29.5905V30H111.074V26.115H111.971V27.4853ZM113.252 28.53C113.252 28.306 113.189 28.131 113.063 28.005C112.941 27.8755 112.789 27.8108 112.607 27.8108C112.428 27.8108 112.276 27.8755 112.15 28.005C112.028 28.1346 111.966 28.3113 111.966 28.5353C111.966 28.7593 112.028 28.936 112.15 29.0656C112.276 29.1951 112.428 29.2598 112.607 29.2598C112.785 29.2598 112.937 29.1951 113.063 29.0656C113.189 28.9326 113.252 28.7541 113.252 28.53ZM117.997 27.0706L116.159 31.3913H115.193L115.865 29.9003L114.674 27.0706H115.676L116.354 28.9028L117.026 27.0706H117.997ZM122.479 26.3145V28.824C122.479 29.2125 122.369 29.5118 122.148 29.7218C121.931 29.9318 121.637 30.0368 121.266 30.0368C120.878 30.0368 120.566 29.9266 120.332 29.7061C120.098 29.4856 119.98 29.1723 119.98 28.7663H120.872C120.872 28.9203 120.904 29.0376 120.967 29.1181C121.03 29.1951 121.121 29.2335 121.24 29.2335C121.349 29.2335 121.433 29.1985 121.492 29.1286C121.552 29.0586 121.581 28.957 121.581 28.824V26.3145H122.479ZM123.393 28.53C123.393 28.2291 123.449 27.9648 123.561 27.7373C123.677 27.5098 123.833 27.3348 124.028 27.2123C124.225 27.0898 124.443 27.0285 124.685 27.0285C124.892 27.0285 125.072 27.0705 125.225 27.1545C125.383 27.2385 125.504 27.3488 125.588 27.4853V27.0706H126.485V30H125.588V29.5853C125.501 29.7218 125.378 29.832 125.22 29.916C125.066 30.0001 124.886 30.042 124.679 30.042C124.442 30.042 124.225 29.9808 124.028 29.8583C123.833 29.7323 123.677 29.5555 123.561 29.328C123.449 29.097 123.393 28.831 123.393 28.53ZM125.588 28.5353C125.588 28.3113 125.525 28.1346 125.399 28.005C125.276 27.8755 125.126 27.8108 124.947 27.8108C124.769 27.8108 124.616 27.8755 124.49 28.005C124.368 28.131 124.307 28.306 124.307 28.53C124.307 28.7541 124.368 28.9326 124.49 29.0656C124.616 29.1951 124.769 29.2598 124.947 29.2598C125.126 29.2598 125.276 29.1951 125.399 29.0656C125.525 28.936 125.588 28.7593 125.588 28.5353ZM131.24 27.039C131.605 27.039 131.894 27.1493 132.107 27.3698C132.324 27.5903 132.432 27.8965 132.432 28.2885V30H131.54V28.4093C131.54 28.2203 131.489 28.075 131.387 27.9735C131.29 27.8685 131.153 27.8161 130.978 27.8161C130.803 27.8161 130.665 27.8685 130.563 27.9735C130.466 28.075 130.416 28.2203 130.416 28.4093V30H129.524V28.4093C129.524 28.2203 129.473 28.075 129.371 27.9735C129.274 27.8685 129.137 27.8161 128.962 27.8161C128.787 27.8161 128.649 27.8685 128.547 27.9735C128.45 28.075 128.4 28.2203 128.4 28.4093V30H127.502V27.0706H128.4V27.438C128.492 27.3156 128.61 27.2193 128.757 27.1493C128.904 27.0758 129.071 27.039 129.256 27.039C129.476 27.039 129.673 27.0863 129.844 27.1808C130.019 27.2753 130.156 27.4101 130.253 27.585C130.355 27.424 130.493 27.2928 130.668 27.1913C130.844 27.0898 131.034 27.039 131.24 27.039ZM133.879 26.766C133.721 26.766 133.592 26.7205 133.49 26.6295C133.393 26.535 133.343 26.4195 133.343 26.283C133.343 26.143 133.393 26.0275 133.49 25.9365C133.592 25.842 133.721 25.7948 133.879 25.7948C134.033 25.7948 134.159 25.842 134.257 25.9365C134.359 26.0275 134.409 26.143 134.409 26.283C134.409 26.4195 134.359 26.535 134.257 26.6295C134.159 26.7205 134.033 26.766 133.879 26.766ZM134.325 27.0706V30H133.427V27.0706H134.325ZM136.535 30.042C136.28 30.042 136.052 29.9983 135.853 29.9108C135.653 29.8233 135.496 29.7043 135.38 29.5538C135.265 29.3998 135.2 29.2283 135.186 29.0393H136.073C136.084 29.1408 136.131 29.223 136.215 29.286C136.299 29.349 136.402 29.3805 136.525 29.3805C136.637 29.3805 136.722 29.3595 136.782 29.3175C136.845 29.272 136.877 29.2143 136.877 29.1443C136.877 29.0603 136.832 28.999 136.745 28.9605C136.658 28.9185 136.516 28.873 136.32 28.824C136.11 28.7751 135.935 28.7243 135.795 28.6718C135.655 28.6158 135.534 28.5301 135.433 28.4146C135.331 28.2955 135.281 28.1363 135.281 27.9368C135.281 27.7688 135.326 27.6165 135.417 27.48C135.512 27.34 135.648 27.2298 135.827 27.1493C136.008 27.0688 136.223 27.0285 136.472 27.0285C136.84 27.0285 137.129 27.1195 137.339 27.3015C137.552 27.4836 137.675 27.7251 137.706 28.026H136.877C136.862 27.9246 136.817 27.844 136.74 27.7846C136.667 27.7251 136.568 27.6953 136.446 27.6953C136.341 27.6953 136.26 27.7163 136.205 27.7583C136.148 27.7968 136.121 27.8511 136.121 27.921C136.121 28.005 136.164 28.068 136.252 28.11C136.343 28.152 136.483 28.194 136.672 28.236C136.889 28.2921 137.066 28.348 137.202 28.4041C137.339 28.4566 137.457 28.5441 137.559 28.6665C137.664 28.7856 137.718 28.9465 137.722 29.1496C137.722 29.3211 137.672 29.475 137.575 29.6115C137.48 29.7445 137.342 29.8495 137.16 29.9265C136.982 30.0036 136.773 30.042 136.535 30.042ZM139.972 30.042C139.685 30.042 139.426 29.9808 139.195 29.8583C138.968 29.7358 138.787 29.5608 138.654 29.3333C138.524 29.1058 138.46 28.8398 138.46 28.5353C138.46 28.2343 138.527 27.97 138.659 27.7426C138.792 27.5116 138.974 27.3348 139.205 27.2123C139.436 27.0898 139.695 27.0285 139.982 27.0285C140.27 27.0285 140.528 27.0898 140.759 27.2123C140.99 27.3348 141.173 27.5116 141.305 27.7426C141.438 27.97 141.505 28.2343 141.505 28.5353C141.505 28.8363 141.437 29.1023 141.3 29.3333C141.167 29.5608 140.984 29.7358 140.749 29.8583C140.518 29.9808 140.259 30.042 139.972 30.042ZM139.972 29.265C140.144 29.265 140.288 29.2021 140.408 29.0761C140.53 28.9501 140.591 28.7698 140.591 28.5353C140.591 28.3008 140.532 28.1205 140.413 27.9945C140.297 27.8685 140.154 27.8056 139.982 27.8056C139.808 27.8056 139.662 27.8685 139.547 27.9945C139.431 28.117 139.373 28.2973 139.373 28.5353C139.373 28.7698 139.43 28.9501 139.541 29.0761C139.657 29.2021 139.8 29.265 139.972 29.265ZM144.134 27.039C144.477 27.039 144.75 27.151 144.953 27.375C145.16 27.5955 145.262 27.9 145.262 28.2885V30H144.37V28.4093C144.37 28.2133 144.32 28.0611 144.218 27.9525C144.116 27.844 143.98 27.7898 143.808 27.7898C143.637 27.7898 143.501 27.844 143.399 27.9525C143.297 28.0611 143.246 28.2133 143.246 28.4093V30H142.349V27.0706H143.246V27.459C143.338 27.3295 143.46 27.228 143.614 27.1545C143.768 27.0775 143.942 27.039 144.134 27.039Z" fill="white"/>
</g>
<defs>
<clipPath id="clip0_1072_6071">
<rect width="180" height="34" fill="white"/>
</clipPath>
<clipPath id="clip1_1072_6071">
<rect width="29.0899" height="23.9992" fill="white" transform="translate(146.739 8.07068)"/>
</clipPath>
</defs>
</svg>
