<svg width="40" height="40" viewBox="0 0 40 40" fill="none" xmlns="http://www.w3.org/2000/svg">
<path fill-rule="evenodd" clip-rule="evenodd" d="M3.33337 10.2449C3.33337 7.58176 5.49228 5.42285 8.1554 5.42285H10.5935V7.26502H8.1554C6.50967 7.26502 5.17554 8.59915 5.17554 10.2449V28.7743C5.17554 30.4201 6.50967 31.7542 8.15538 31.7542H23.109V33.5963H8.15538C5.49226 33.5963 3.33337 31.4375 3.33337 28.7743V10.2449ZM12.9771 7.26502V5.42285H23.109V7.26502H12.9771ZM27.6601 7.26502H25.222V5.42285H27.6601C30.3231 5.42285 32.4821 7.58176 32.4821 10.2449V22.7633H30.64V10.2449C30.64 8.59915 29.3057 7.26502 27.6601 7.26502Z" fill="#50B4F3"/>
<path fill-rule="evenodd" clip-rule="evenodd" d="M3.33337 12.1984C3.33337 11.6897 3.74576 11.2773 4.25446 11.2773H31.5611C32.0697 11.2773 32.4822 11.6897 32.4822 12.1984C32.4822 12.7071 32.0697 13.1195 31.5611 13.1195H4.25446C3.74576 13.1195 3.33337 12.7071 3.33337 12.1984ZM29.6106 23.8469C26.349 23.8469 23.705 26.4909 23.705 29.7525C23.705 33.014 26.349 35.6579 29.6106 35.6579C32.8721 35.6579 35.516 33.014 35.516 29.7525C35.516 26.4909 32.8721 23.8469 29.6106 23.8469ZM21.8628 29.7525C21.8628 25.4735 25.3316 22.0047 29.6106 22.0047C33.8894 22.0047 37.3582 25.4735 37.3582 29.7525C37.3582 34.0313 33.8894 37.5001 29.6106 37.5001C25.3316 37.5001 21.8628 34.0313 21.8628 29.7525Z" fill="#50B4F3"/>
<path fill-rule="evenodd" clip-rule="evenodd" d="M28.6925 26.2707H28.3311C27.1154 26.2707 26.13 27.2561 26.13 28.4717C26.13 29.6874 27.1154 30.6728 28.3311 30.6728H28.6901V31.3907H27.0511C26.5423 31.3907 26.13 31.8029 26.13 32.3117C26.13 32.8204 26.5423 33.2328 27.0511 33.2328H28.6925C28.7271 33.7098 29.1252 34.0861 29.6112 34.0861C30.097 34.0861 30.4951 33.7098 30.5297 33.2328H30.8911C32.1068 33.2328 33.0921 32.2473 33.0921 31.0316C33.0921 29.8162 32.1068 28.8306 30.8911 28.8306H30.5323V28.1129H32.1711C32.6799 28.1129 33.0921 27.7004 33.0921 27.1918C33.0921 26.683 32.6799 26.2707 32.1711 26.2707H30.5297C30.4951 25.7936 30.097 25.4173 29.6112 25.4173C29.1252 25.4173 28.7271 25.7936 28.6925 26.2707ZM30.5323 30.6728V31.3907H30.8911C31.0893 31.3907 31.25 31.2298 31.25 31.0316C31.25 30.8334 31.0893 30.6728 30.8911 30.6728H30.5323ZM28.6901 28.8306V28.1129H28.3311C28.1328 28.1129 27.9722 28.2735 27.9722 28.4717C27.9722 28.67 28.1328 28.8306 28.3311 28.8306H28.6901ZM9.18536 4.88393C9.18536 3.56731 10.2527 2.5 11.5693 2.5C12.8859 2.5 13.9532 3.56733 13.9532 4.88393V7.80963C13.9532 9.12624 12.8859 10.1936 11.5693 10.1936C10.2527 10.1936 9.18536 9.12624 9.18536 7.80963V4.88393ZM11.5693 4.34216C11.2701 4.34216 11.0275 4.58472 11.0275 4.88393V7.80963C11.0275 8.10884 11.2701 8.35139 11.5693 8.35139C11.8685 8.35139 12.1111 8.10884 12.1111 7.80963V4.88393C12.1111 4.58472 11.8685 4.34216 11.5693 4.34216ZM21.8634 4.88393C21.8634 3.56731 22.9308 2.5 24.2474 2.5C25.564 2.5 26.6313 3.56733 26.6313 4.88393V7.80963C26.6313 9.12624 25.564 10.1936 24.2474 10.1936C22.9308 10.1936 21.8634 9.12624 21.8634 7.80963V4.88393ZM24.2474 4.34216C23.9482 4.34216 23.7056 4.58472 23.7056 4.88393V7.80963C23.7056 8.10884 23.9482 8.35139 24.2474 8.35139C24.5465 8.35139 24.7891 8.10884 24.7891 7.80963V4.88393C24.7891 4.58472 24.5465 4.34216 24.2474 4.34216ZM7.23486 16.1003C7.23486 15.5916 7.64725 15.1793 8.15595 15.1793H12.0569C12.5656 15.1793 12.978 15.5916 12.978 16.1003V20.0013C12.978 20.5099 12.5656 20.9224 12.0569 20.9224H8.15595C7.64725 20.9224 7.23486 20.5099 7.23486 20.0013V16.1003ZM9.07703 17.0214V19.0802H11.1358V17.0214H9.07703ZM15.0368 16.1003C15.0368 15.5916 15.4492 15.1793 15.9579 15.1793H19.8588C20.3676 15.1793 20.7799 15.5916 20.7799 16.1003V20.0013C20.7799 20.5099 20.3676 20.9224 19.8588 20.9224H15.9579C15.4492 20.9224 15.0368 20.5099 15.0368 20.0013V16.1003ZM16.8789 17.0214V19.0802H18.9377V17.0214H16.8789ZM22.8387 16.1003C22.8387 15.5916 23.2509 15.1793 23.7597 15.1793H27.6607C28.1693 15.1793 28.5818 15.5916 28.5818 16.1003V20.0013C28.5818 20.5099 28.1693 20.9224 27.6607 20.9224H23.7597C23.2509 20.9224 22.8387 20.5099 22.8387 20.0013V16.1003ZM24.6808 17.0214V19.0802H26.7396V17.0214H24.6808ZM7.23486 23.8989C7.23486 23.3903 7.64725 22.9779 8.15595 22.9779H12.0569C12.5656 22.9779 12.978 23.3903 12.978 23.8989V27.7999C12.978 28.3085 12.5656 28.721 12.0569 28.721H8.15595C7.64725 28.721 7.23486 28.3085 7.23486 27.7999V23.8989ZM9.07703 24.82V26.8788H11.1358V24.82H9.07703ZM15.0368 23.8989C15.0368 23.3903 15.4492 22.9779 15.9579 22.9779H19.8588C20.3676 22.9779 20.7799 23.3903 20.7799 23.8989V27.7999C20.7799 28.3085 20.3676 28.721 19.8588 28.721H15.9579C15.4492 28.721 15.0368 28.3085 15.0368 27.7999V23.8989ZM16.8789 24.82V26.8788H18.9377V24.82H16.8789Z" fill="#50B4F3"/>
</svg>
