<svg width="40" height="40" viewBox="0 0 40 40" fill="none" xmlns="http://www.w3.org/2000/svg">
<path d="M28.8394 34.6967L25.1537 31.011C24.014 29.8714 24.014 28.0248 25.1537 26.8851L28.8394 23.1995C29.979 22.0598 31.8256 22.0598 32.9653 23.1995L36.6509 26.8851C37.7906 28.0248 37.7906 29.8714 36.6509 31.011L32.9653 34.6967C31.8268 35.8364 29.979 35.8364 28.8394 34.6967Z" fill="white"/>
<path d="M33.1659 3.33301H7.12324C4.11469 3.33301 1.66669 5.78102 1.66669 8.78956V25.4817C1.66669 28.4902 4.11469 30.9382 7.12324 30.9382H20.0205C20.6369 30.9382 21.1367 30.4384 21.1367 29.8221C21.1367 29.2057 20.6369 28.706 20.0205 28.706H7.12324C5.3449 28.706 3.89891 27.2588 3.89891 25.4817V16.8256H36.3902V21.6013C36.3902 22.2176 36.89 22.7174 37.5063 22.7174C38.1227 22.7174 38.6224 22.2176 38.6224 21.6013V8.78956C38.6224 5.78102 36.1744 3.33301 33.1659 3.33301ZM7.12324 5.56523H33.1659C34.9442 5.56523 36.3902 7.01246 36.3902 8.78956V9.52868H3.89891V8.78956C3.89891 7.01122 5.3449 5.56523 7.12324 5.56523ZM3.89891 14.5933V11.7609H36.3902V14.5933H3.89891Z" fill="#37B59B"/>
<path d="M8.12435 21.3982H11.5434C12.1597 21.3982 12.6595 20.8985 12.6595 20.2821C12.6595 19.6658 12.1597 19.166 11.5434 19.166H8.12435C7.50801 19.166 7.00824 19.6658 7.00824 20.2821C7.00824 20.8985 7.50801 21.3982 8.12435 21.3982ZM8.12435 25.5998H14.9624C15.5787 25.5998 16.0785 25.1 16.0785 24.4837C16.0785 23.8673 15.5787 23.3676 14.9624 23.3676H8.12435C7.50801 23.3676 7.00824 23.8673 7.00824 24.4837C7.00824 25.1 7.50801 25.5998 8.12435 25.5998ZM33.754 22.4102C32.2312 20.8861 29.5736 20.8848 28.0494 22.4102L24.3638 26.0958C22.7901 27.6683 22.7901 30.2279 24.3638 31.8004L28.0494 35.4873C28.8357 36.2735 29.8687 36.6667 30.9017 36.6667C31.9348 36.6667 32.9678 36.2735 33.754 35.4873L37.4409 31.8004C39.0122 30.2279 39.0122 27.6683 37.4409 26.0958L33.754 22.4102ZM35.8622 30.2217L32.1753 33.9086C31.4734 34.6093 30.33 34.6105 29.6269 33.9086L25.9412 30.223C25.2393 29.5211 25.2393 28.3777 25.9412 27.6745L29.6269 23.9889C30.3077 23.308 31.4958 23.3093 32.1753 23.9889L35.861 27.6745C36.5642 28.3764 36.5641 29.5198 35.8622 30.2217Z" fill="#37B59B"/>
<path d="M30.902 24.9238C30.2857 24.9238 29.7859 25.4236 29.7859 26.0399V28.6864C29.7859 29.3027 30.2857 29.8025 30.902 29.8025C31.5183 29.8025 32.0181 29.3027 32.0181 28.6864V26.0399C32.0181 25.4236 31.5183 24.9238 30.902 24.9238ZM30.902 30.5168C30.2857 30.5168 29.7859 31.0166 29.7859 31.6329V31.8561C29.7859 32.4725 30.2857 32.9722 30.902 32.9722C31.5183 32.9722 32.0181 32.4725 32.0181 31.8561V31.6329C32.0181 31.0166 31.5183 30.5168 30.902 30.5168Z" fill="#37B59B"/>
</svg>
