<svg width="32" height="32" viewBox="0 0 32 32" fill="none" xmlns="http://www.w3.org/2000/svg">
<path d="M21.963 26.333V23.9626C21.963 22.7053 21.4635 21.4995 20.5744 20.6104C19.6854 19.7213 18.4795 19.2219 17.2222 19.2219H7.74074C6.48342 19.2219 5.27759 19.7213 4.38853 20.6104C3.49947 21.4995 3 22.7053 3 23.9626V26.333" stroke="#37B59B" stroke-width="2" stroke-linecap="round" stroke-linejoin="round"/>
<path d="M12.4815 14.4811C15.0997 14.4811 17.2222 12.3586 17.2222 9.74037C17.2222 7.12214 15.0997 4.99963 12.4815 4.99963C9.86322 4.99963 7.74072 7.12214 7.74072 9.74037C7.74072 12.3586 9.86322 14.4811 12.4815 14.4811Z" stroke="#37B59B" stroke-width="2" stroke-linecap="round" stroke-linejoin="round"/>
<path d="M29.0741 26.3328V23.9625C29.0733 22.9121 28.7237 21.8917 28.0802 21.0615C27.4366 20.2313 26.5356 19.6384 25.5186 19.3758" stroke="#37B59B" stroke-width="2" stroke-linecap="round" stroke-linejoin="round"/>
<path d="M20.7778 5.15356C21.7976 5.41466 22.7014 6.00773 23.3469 6.83927C23.9923 7.6708 24.3427 8.69351 24.3427 9.74616C24.3427 10.7988 23.9923 11.8215 23.3469 12.653C22.7014 13.4846 21.7976 14.0777 20.7778 14.3388" stroke="#37B59B" stroke-width="2" stroke-linecap="round" stroke-linejoin="round"/>
</svg>
