<svg width="28" height="33" viewBox="0 0 28 33" fill="none" xmlns="http://www.w3.org/2000/svg">
<path d="M7.52248 14.2977C7.88922 10.997 10.6791 8.5 14 8.5V8.5C17.3209 8.5 20.1108 10.997 20.4775 14.2977L20.7713 16.9416C20.807 17.263 20.8249 17.4238 20.8489 17.582C20.9892 18.5064 21.2906 19.3991 21.7392 20.2195C21.816 20.3599 21.8992 20.4986 22.0656 20.7759L22.7399 21.8999C23.4925 23.1541 23.8687 23.7812 23.6349 24.267C23.6156 24.307 23.5937 24.3457 23.5693 24.3829C23.273 24.8333 22.5417 24.8333 21.0791 24.8333H6.92094C5.45832 24.8333 4.72701 24.8333 4.43071 24.3829C4.4063 24.3457 4.38439 24.307 4.36513 24.267C4.13129 23.7812 4.50755 23.1541 5.26006 21.8999L5.93443 20.7759C6.10083 20.4986 6.18404 20.3599 6.26083 20.2195C6.70945 19.3991 7.01077 18.5064 7.15111 17.582C7.17514 17.4238 7.193 17.263 7.22871 16.9416L7.52248 14.2977Z" stroke="#555B6D" stroke-width="1.9"/>
<path d="M9.33317 24.8333C9.33317 25.4462 9.45388 26.053 9.6884 26.6192C9.92292 27.1854 10.2667 27.6998 10.7 28.1332C11.1333 28.5665 11.6478 28.9102 12.214 29.1448C12.7802 29.3793 13.387 29.5 13.9998 29.5C14.6127 29.5 15.2195 29.3793 15.7857 29.1448C16.3519 28.9102 16.8663 28.5665 17.2997 28.1332C17.733 27.6998 18.0768 27.1854 18.3113 26.6192C18.5458 26.053 18.6665 25.4462 18.6665 24.8333" stroke="#555B6D" stroke-width="1.9" stroke-linecap="round"/>
<circle cx="14" cy="3" r="3" fill="#EC0000"/>
</svg>
