<svg width="32" height="32" viewBox="0 0 32 32" fill="none" xmlns="http://www.w3.org/2000/svg">
<g clip-path="url(#clip0_545_9757)">
<path d="M30 14H22V9H27.323C27.5228 9 27.7181 9.05989 27.8836 9.17193C28.0491 9.28398 28.1772 9.44304 28.2514 9.62861L30 14Z" stroke="#E5408D" stroke-width="2" stroke-linecap="round" stroke-linejoin="round"/>
<path d="M2 17H22" stroke="#E5408D" stroke-width="2" stroke-linecap="round" stroke-linejoin="round"/>
<path d="M23.5 26C25.1569 26 26.5 24.6569 26.5 23C26.5 21.3431 25.1569 20 23.5 20C21.8431 20 20.5 21.3431 20.5 23C20.5 24.6569 21.8431 26 23.5 26Z" stroke="#E5408D" stroke-width="2" stroke-miterlimit="10"/>
<path d="M8.5 26C10.1569 26 11.5 24.6569 11.5 23C11.5 21.3431 10.1569 20 8.5 20C6.84315 20 5.5 21.3431 5.5 23C5.5 24.6569 6.84315 26 8.5 26Z" stroke="#E5408D" stroke-width="2" stroke-miterlimit="10"/>
<path d="M20.5 23H11.5" stroke="#E5408D" stroke-width="2" stroke-linecap="round" stroke-linejoin="round"/>
<path d="M5.5 23H3C2.73478 23 2.48043 22.8946 2.29289 22.7071C2.10536 22.5196 2 22.2652 2 22V8C2 7.73478 2.10536 7.48043 2.29289 7.29289C2.48043 7.10536 2.73478 7 3 7H22V20.4019V14H30V22C30 22.2652 29.8946 22.5196 29.7071 22.7071C29.5196 22.8946 29.2652 23 29 23H26.5" stroke="#E5408D" stroke-width="2" stroke-linecap="round" stroke-linejoin="round"/>
</g>
<defs>
<clipPath id="clip0_545_9757">
<rect width="32" height="32" fill="white"/>
</clipPath>
</defs>
</svg>
