<svg width="20" height="20" viewBox="0 0 20 20" fill="none" xmlns="http://www.w3.org/2000/svg">
<path d="M17.2308 17.6153C17.2308 17.9825 17.0849 18.3347 16.8252 18.5944C16.5656 18.8541 16.2134 18.9999 15.8462 18.9999H3.38462C3.01739 18.9999 2.66521 18.8541 2.40554 18.5944C2.14588 18.3347 2 17.9825 2 17.6153V2.38455C2 2.01733 2.14588 1.66515 2.40554 1.40548C2.66521 1.14582 3.01739 0.999939 3.38462 0.999939H12.3846L17.2308 5.84609V17.6153Z" stroke="#8C8A9F" stroke-width="1.5" stroke-linecap="round" stroke-linejoin="round"/>
<path d="M11.6923 0.999939V6.5384H17.2308" stroke="#8C8A9F" stroke-width="1.5" stroke-linecap="round" stroke-linejoin="round"/>
<path d="M11.0409 10.945C10.9605 10.7174 10.8116 10.5204 10.6145 10.381C10.4175 10.2416 10.1821 10.1668 9.94074 10.1668H9.03891C8.78241 10.1675 8.53519 10.2628 8.3446 10.4345C8.15401 10.6062 8.03344 10.8421 8.00599 11.0971C7.97853 11.3522 8.04612 11.6083 8.19582 11.8166C8.34551 12.0249 8.56677 12.1707 8.81724 12.226L10.1916 12.527C10.4728 12.5884 10.7214 12.7515 10.8896 12.9851C11.0578 13.2187 11.1337 13.5062 11.1027 13.7924C11.0717 14.0785 10.936 14.3431 10.7218 14.5353C10.5075 14.7275 10.2297 14.8337 9.94191 14.8335H9.16491C8.92357 14.8335 8.68816 14.7587 8.49112 14.6193C8.29408 14.4799 8.14511 14.2829 8.06474 14.0553" stroke="#8C8A9F" stroke-width="1.2" stroke-linecap="round" stroke-linejoin="round"/>
<path d="M9.55225 10.1667V9" stroke="#8C8A9F" stroke-width="1.2" stroke-linecap="round" stroke-linejoin="round"/>
<path d="M9.55225 15.9999V14.8332" stroke="#8C8A9F" stroke-width="1.2" stroke-linecap="round" stroke-linejoin="round"/>
</svg>
