<svg width="20" height="20" viewBox="0 0 20 20" fill="none" xmlns="http://www.w3.org/2000/svg">
<path d="M13.9091 15.7727V14.4091C13.9091 13.6858 13.6217 12.9921 13.1103 12.4806C12.5988 11.9692 11.9051 11.6818 11.1818 11.6818H5.72727C5.00395 11.6818 4.31026 11.9692 3.7988 12.4806C3.28734 12.9921 3 13.6858 3 14.4091V15.7727" stroke="#8C8A9F" stroke-width="1.5" stroke-linecap="round" stroke-linejoin="round"/>
<path d="M8.45456 8.95453C9.96079 8.95453 11.1818 7.73349 11.1818 6.22727C11.1818 4.72104 9.96079 3.5 8.45456 3.5C6.94833 3.5 5.72729 4.72104 5.72729 6.22727C5.72729 7.73349 6.94833 8.95453 8.45456 8.95453Z" stroke="#8C8A9F" stroke-width="1.5" stroke-linecap="round" stroke-linejoin="round"/>
<path d="M18 15.7728V14.4091C17.9996 13.8049 17.7985 13.2178 17.4282 12.7403C17.058 12.2627 16.5397 11.9216 15.9546 11.7705" stroke="#8C8A9F" stroke-width="1.5" stroke-linecap="round" stroke-linejoin="round"/>
<path d="M13.2273 3.58868C13.8139 3.73889 14.3339 4.08007 14.7052 4.55844C15.0765 5.03681 15.2781 5.62515 15.2781 6.23072C15.2781 6.83629 15.0765 7.42464 14.7052 7.90301C14.3339 8.38138 13.8139 8.72256 13.2273 8.87276" stroke="#8C8A9F" stroke-width="1.5" stroke-linecap="round" stroke-linejoin="round"/>
</svg>
