<svg width="20" height="20" viewBox="0 0 20 20" fill="none" xmlns="http://www.w3.org/2000/svg">
<path d="M7.45977 2.85156H4.1418C3.42922 2.85156 2.85156 3.42922 2.85156 4.1418V7.45977C2.85156 8.17234 3.42922 8.75 4.1418 8.75H7.45977C8.17234 8.75 8.75 8.17234 8.75 7.45977V4.1418C8.75 3.42922 8.17234 2.85156 7.45977 2.85156Z" stroke="#8C8A9F" stroke-width="1.5" stroke-linecap="round" stroke-linejoin="round"/>
<path d="M15.8582 2.85156H12.5402C11.8277 2.85156 11.25 3.42922 11.25 4.1418V7.45977C11.25 8.17234 11.8277 8.75 12.5402 8.75H15.8582C16.5708 8.75 17.1484 8.17234 17.1484 7.45977V4.1418C17.1484 3.42922 16.5708 2.85156 15.8582 2.85156Z" stroke="#8C8A9F" stroke-width="1.5" stroke-linecap="round" stroke-linejoin="round"/>
<path d="M7.45977 11.25H4.1418C3.42922 11.25 2.85156 11.8277 2.85156 12.5402V15.8582C2.85156 16.5708 3.42922 17.1484 4.1418 17.1484H7.45977C8.17234 17.1484 8.75 16.5708 8.75 15.8582V12.5402C8.75 11.8277 8.17234 11.25 7.45977 11.25Z" stroke="#8C8A9F" stroke-width="1.5" stroke-linecap="round" stroke-linejoin="round"/>
<path d="M15.8582 11.25H12.5402C11.8277 11.25 11.25 11.8277 11.25 12.5402V15.8582C11.25 16.5708 11.8277 17.1484 12.5402 17.1484H15.8582C16.5708 17.1484 17.1484 16.5708 17.1484 15.8582V12.5402C17.1484 11.8277 16.5708 11.25 15.8582 11.25Z" stroke="#8C8A9F" stroke-width="1.5" stroke-linecap="round" stroke-linejoin="round"/>
</svg>
