<svg width="24" height="24" viewBox="0 0 24 24" fill="none" xmlns="http://www.w3.org/2000/svg">
<path d="M14 11H8M10 15H8M16 7H8M20 10.5V6.8C20 5.11984 20 4.27976 19.673 3.63803C19.3854 3.07354 18.9265 2.6146 18.362 2.32698C17.7202 2 16.8802 2 15.2 2H8.8C7.11984 2 6.27976 2 5.63803 2.32698C5.07354 2.6146 4.6146 3.07354 4.32698 3.63803C4 4.27976 4 5.11984 4 6.8V17.2C4 18.8802 4 19.7202 4.32698 20.362C4.6146 20.9265 5.07354 21.3854 5.63803 21.673C6.27976 22 7.11984 22 8.8 22H11.5" stroke="black" stroke-width="1.5" stroke-linecap="round" stroke-linejoin="round"/>
<path d="M14.9833 19.361L14.5 23L16.7942 21.6235C16.869 21.5786 16.9064 21.5561 16.9464 21.5474C16.9817 21.5396 17.0183 21.5396 17.0536 21.5474C17.0936 21.5561 17.131 21.5786 17.2058 21.6235L19.5 23L19.0171 19.3606M20.5 16.5C20.5 18.433 18.933 20 17 20C15.067 20 13.5 18.433 13.5 16.5C13.5 14.567 15.067 13 17 13C18.933 13 20.5 14.567 20.5 16.5Z" stroke="black" stroke-width="1.2" stroke-linecap="round" stroke-linejoin="round"/>
</svg>
