<svg width="20" height="20" viewBox="0 0 20 20" fill="none" xmlns="http://www.w3.org/2000/svg">
<path d="M5 5.66666C5 5.48985 5.07023 5.32028 5.19526 5.19526C5.32028 5.07023 5.48985 5 5.66666 5H8.33333C8.51014 5 8.67971 5.07023 8.80473 5.19526C8.92976 5.32028 8.99999 5.48985 8.99999 5.66666C8.99999 5.84347 8.92976 6.01304 8.80473 6.13807C8.67971 6.26309 8.51014 6.33333 8.33333 6.33333H5.66666C5.48985 6.33333 5.32028 6.26309 5.19526 6.13807C5.07023 6.01304 5 5.84347 5 5.66666ZM10.3333 7.66666H5.66666C5.48985 7.66666 5.32028 7.7369 5.19526 7.86192C5.07023 7.98695 5 8.15652 5 8.33333C5 8.51014 5.07023 8.67971 5.19526 8.80473C5.32028 8.92976 5.48985 8.99999 5.66666 8.99999H10.3333C10.5101 8.99999 10.6797 8.92976 10.8047 8.80473C10.9298 8.67971 11 8.51014 11 8.33333C11 8.15652 10.9298 7.98695 10.8047 7.86192C10.6797 7.7369 10.5101 7.66666 10.3333 7.66666ZM10.3333 10.3333H5.66666C5.48985 10.3333 5.32028 10.4036 5.19526 10.5286C5.07023 10.6536 5 10.8232 5 11C5 11.1768 5.07023 11.3464 5.19526 11.4714C5.32028 11.5964 5.48985 11.6667 5.66666 11.6667H10.3333C10.5101 11.6667 10.6797 11.5964 10.8047 11.4714C10.9298 11.3464 11 11.1768 11 11C11 10.8232 10.9298 10.6536 10.8047 10.5286C10.6797 10.4036 10.5101 10.3333 10.3333 10.3333ZM19 5C19.0017 5.64038 18.8492 6.27176 18.5554 6.84077C18.2616 7.40979 17.8351 7.89971 17.312 8.26914C16.789 8.63856 16.1846 8.87664 15.5501 8.96323C14.9156 9.04983 14.2696 8.98241 13.6667 8.76666V17.6667C13.6667 18.1971 13.4559 18.7058 13.0809 19.0809C12.7058 19.4559 12.1971 19.6667 11.6667 19.6667H3C2.46957 19.6667 1.96086 19.4559 1.58579 19.0809C1.21071 18.7058 1 18.1971 1 17.6667V16.3333C1 16.1565 1.07024 15.9869 1.19526 15.8619C1.32029 15.7369 1.48986 15.6667 1.66667 15.6667H2.33333V3.66666C2.33333 2.95942 2.61428 2.28114 3.11438 1.78105C3.61448 1.28095 4.29275 1 5 1H13C13.1051 1.00099 13.2084 1.02726 13.3012 1.07657C13.3941 1.12588 13.4737 1.1968 13.5333 1.28333C14.1394 1.04239 14.7953 0.95363 15.4437 1.02482C16.092 1.09601 16.7131 1.32497 17.2525 1.69169C17.7918 2.05841 18.2332 2.55171 18.5378 3.12844C18.8424 3.70516 19.0011 4.34775 19 5ZM3 18.3333H9.78933C9.71037 18.1198 9.66887 17.8943 9.66666 17.6667V17H2.33333V17.6667C2.33333 17.8435 2.40357 18.013 2.52859 18.1381C2.65362 18.2631 2.82319 18.3333 3 18.3333ZM12.3333 7.97333C11.9412 7.62421 11.622 7.20095 11.3941 6.72792C11.1663 6.25488 11.0343 5.74144 11.0058 5.21717C10.9773 4.69291 11.0528 4.16818 11.228 3.67323C11.4032 3.17829 11.6747 2.72291 12.0267 2.33333H5C4.64638 2.33333 4.30724 2.47381 4.05719 2.72386C3.80714 2.9739 3.66666 3.31304 3.66666 3.66666V15.6667H10.3333C10.5101 15.6667 10.6797 15.7369 10.8047 15.8619C10.9298 15.9869 11 16.1565 11 16.3333V17.6667C11 17.8435 11.0702 18.013 11.1953 18.1381C11.3203 18.2631 11.4898 18.3333 11.6667 18.3333C11.8435 18.3333 12.013 18.2631 12.1381 18.1381C12.2631 18.013 12.3333 17.8435 12.3333 17.6667V7.97333ZM17.6667 5C17.6667 4.47258 17.5103 3.95701 17.2172 3.51848C16.9242 3.07995 16.5077 2.73815 16.0205 2.53632C15.5332 2.33449 14.997 2.28168 14.4797 2.38457C13.9625 2.48747 13.4873 2.74144 13.1144 3.11438C12.7414 3.48732 12.4875 3.96247 12.3846 4.47976C12.2817 4.99704 12.3345 5.53322 12.5363 6.02048C12.7381 6.50775 13.0799 6.92423 13.5185 7.21725C13.957 7.51026 14.4726 7.66666 15 7.66666C15.7072 7.66666 16.3855 7.38571 16.8856 6.88561C17.3857 6.38552 17.6667 5.70724 17.6667 5ZM16.3333 4.33333H15.6667C15.6667 4.15652 15.5964 3.98695 15.4714 3.86193C15.3464 3.7369 15.1768 3.66666 15 3.66666C14.8232 3.66666 14.6536 3.7369 14.5286 3.86193C14.4036 3.98695 14.3333 4.15652 14.3333 4.33333V5C14.3333 5.17681 14.4036 5.34638 14.5286 5.4714C14.6536 5.59642 14.8232 5.66666 15 5.66666H16.3333C16.5101 5.66666 16.6797 5.59642 16.8047 5.4714C16.9298 5.34638 17 5.17681 17 5C17 4.82319 16.9298 4.65362 16.8047 4.52859C16.6797 4.40357 16.5101 4.33333 16.3333 4.33333Z" fill="#8C8A9F"/>
</svg>
