<svg width="20" height="20" viewBox="0 0 20 20" fill="none" xmlns="http://www.w3.org/2000/svg">
<path d="M17.5432 7.00011H2.45749C2.24323 6.99577 2.03074 7.03969 1.83576 7.12862C1.64078 7.21755 1.46831 7.34921 1.33111 7.51384C1.19392 7.67847 1.09552 7.87186 1.04321 8.07968C0.990902 8.2875 0.986018 8.50443 1.02892 8.7144L2.60035 16.5715C2.66714 16.8991 2.84667 17.1928 3.1077 17.4016C3.36872 17.6105 3.69471 17.7211 4.02892 17.7144H15.9718C16.306 17.7211 16.632 17.6105 16.893 17.4016C17.154 17.1928 17.3336 16.8991 17.4004 16.5715L18.9718 8.7144C19.0147 8.50443 19.0098 8.2875 18.9575 8.07968C18.9052 7.87186 18.8068 7.67847 18.6696 7.51384C18.5324 7.34921 18.3599 7.21755 18.1649 7.12862C17.97 7.03969 17.7575 6.99577 17.5432 7.00011Z" stroke="#8C8A9F" stroke-width="1.5" stroke-linecap="round" stroke-linejoin="round"/>
<path d="M12.8575 2.00012L15.7146 7.00012" stroke="#8C8A9F" stroke-width="1.5" stroke-linecap="round" stroke-linejoin="round"/>
<path d="M4.28607 7.00012L7.14321 2.00012" stroke="#8C8A9F" stroke-width="1.5" stroke-linecap="round" stroke-linejoin="round"/>
</svg>
