<svg width="20" height="20" viewBox="0 0 20 20" fill="none" xmlns="http://www.w3.org/2000/svg">
<path d="M3.99995 6.24839C4.65206 5.11889 5.60382 4.19173 6.75 3.56941C7.89618 2.94708 9.19213 2.65384 10.4946 2.7221C11.797 2.79035 13.0552 3.21746 14.1301 3.95618C15.2049 4.6949 16.0545 5.71647 16.585 6.90795M2.37341 4.05198L3.01821 6.845C3.12803 7.32071 3.6027 7.61731 4.0784 7.50749L6.87142 6.86269M16.249 13.3203C15.5969 14.4498 14.6451 15.3769 13.4989 15.9993C12.3528 16.6216 11.0568 16.9148 9.75437 16.8466C8.45193 16.7783 7.19373 16.3512 6.11888 15.6125C5.04403 14.8738 4.1944 13.8522 3.66392 12.6607M17.8755 15.5167L17.2307 12.7237C17.1209 12.248 16.6462 11.9513 16.1705 12.0612L13.3775 12.706" stroke="#8C8A9F" stroke-width="1.5" stroke-linecap="round"/>
</svg>
