<svg width="20" height="21" viewBox="0 0 20 21" fill="none" xmlns="http://www.w3.org/2000/svg">
<path d="M17.0706 3H13.7441L14.1608 7.16667C14.1608 7.16667 14.9941 8 16.2441 8C17.1416 8 17.7527 7.57037 18.0261 7.32808C18.135 7.23152 18.1748 7.08409 18.1509 6.94051L17.5637 3.4178C17.5236 3.17671 17.315 3 17.0706 3Z" stroke="#8C8A9F" stroke-width="1.5"/>
<path d="M13.7441 3L14.1608 7.16667C14.1608 7.16667 13.3275 8 12.0775 8C10.8275 8 9.99414 7.16667 9.99414 7.16667V3H13.7441Z" stroke="#8C8A9F" stroke-width="1.5"/>
<path d="M9.9948 3V7.16667C9.9948 7.16667 9.16147 8 7.91146 8C6.66146 8 5.82812 7.16667 5.82812 7.16667L6.24479 3H9.9948Z" stroke="#8C8A9F" stroke-width="1.5"/>
<path d="M6.24451 3H2.91807C2.67365 3 2.46506 3.17671 2.42488 3.4178L1.83775 6.94052C1.81383 7.08409 1.85368 7.23152 1.9626 7.32808C2.23587 7.57037 2.84697 8 3.74449 8C4.99449 8 5.82784 7.16667 5.82784 7.16667L6.24451 3Z" stroke="#8C8A9F" stroke-width="1.5"/>
<path d="M2.5 8V16.3333C2.5 17.2538 3.24619 18 4.16667 18H15.8333C16.7538 18 17.5 17.2538 17.5 16.3333V8" stroke="#8C8A9F" stroke-width="1.5"/>
</svg>
